<svg width="499" height="494" viewBox="0 0 499 494" fill="none" xmlns="http://www.w3.org/2000/svg">
<path fill-rule="evenodd" clip-rule="evenodd" d="M110.156 135.166C110.156 135.257 108.423 135.393 106.305 135.468C104.186 135.543 102.406 135.677 102.349 135.765C102.293 135.854 101.565 135.989 100.732 136.066C99.9 136.143 99.219 136.286 99.219 136.384C99.219 136.482 98.999 136.563 98.73 136.563C98.462 136.563 98.242 136.643 98.242 136.741C98.242 136.839 97.891 136.978 97.461 137.051C97.031 137.124 96.68 137.263 96.68 137.361C96.68 137.459 96.568 137.539 96.433 137.539C96.297 137.539 95.879 137.703 95.505 137.904C95.13 138.104 93.857 138.599 92.676 139.004C88.225 140.529 83.753 143.376 77.805 148.47C77.575 148.666 77.179 148.893 76.926 148.973C76.672 149.053 76.323 149.282 76.149 149.481C75.975 149.681 75.753 149.844 75.655 149.844C75.557 149.844 75.332 149.998 75.155 150.186C74.977 150.374 74.716 150.635 74.574 150.766C74.432 150.898 74.217 151.106 74.095 151.229C73.974 151.352 73.622 151.704 73.314 152.01C72.597 152.721 72.266 153.118 72.266 153.263C72.266 153.326 72.058 153.572 71.804 153.808C71.551 154.045 71.281 154.436 71.205 154.678C71.129 154.92 70.985 155.118 70.885 155.118C70.785 155.118 70.703 155.249 70.703 155.41C70.703 155.572 70.617 155.703 70.511 155.703C70.406 155.703 70.265 155.923 70.197 156.192C70.13 156.46 70.006 156.68 69.922 156.68C69.838 156.68 69.714 156.9 69.646 157.168C69.579 157.437 69.438 157.657 69.332 157.657C69.227 157.657 69.141 157.788 69.141 157.95C69.141 158.111 69.054 158.243 68.949 158.243C68.844 158.243 68.702 158.462 68.635 158.731C68.567 158.999 68.443 159.219 68.359 159.219C68.275 159.219 68.147 159.456 68.074 159.745C68.002 160.034 67.779 160.412 67.578 160.586C67.378 160.76 67.154 161.139 67.082 161.428C67.009 161.717 66.875 161.953 66.784 161.953C66.694 161.953 66.561 162.261 66.491 162.637C66.42 163.013 66.285 163.321 66.189 163.321C66.094 163.321 66.016 163.452 66.016 163.614C66.016 163.775 65.935 163.907 65.836 163.907C65.737 163.907 65.598 164.17 65.527 164.493C65.456 164.815 65.318 165.078 65.219 165.078C65.12 165.078 65.039 165.21 65.039 165.371C65.039 165.533 64.961 165.664 64.865 165.664C64.77 165.664 64.634 165.972 64.564 166.348C64.493 166.724 64.363 167.032 64.274 167.032C64.185 167.032 64.056 167.383 63.987 167.813C63.919 168.243 63.776 168.594 63.67 168.594C63.563 168.594 63.477 168.806 63.477 169.066C63.477 169.326 63.383 169.569 63.269 169.607C63.154 169.645 63.011 170.048 62.95 170.503C62.889 170.957 62.767 171.328 62.679 171.328C62.591 171.328 62.46 171.856 62.387 172.5C62.314 173.145 62.178 173.672 62.084 173.672C61.991 173.672 61.914 173.936 61.914 174.258C61.914 174.58 61.836 174.844 61.742 174.844C61.647 174.844 61.507 175.503 61.432 176.309C61.357 177.115 61.223 177.774 61.136 177.774C61.049 177.774 60.916 178.477 60.84 179.336C60.764 180.196 60.623 180.899 60.526 180.899C60.43 180.899 60.352 181.25 60.352 181.68C60.352 182.11 60.272 182.461 60.175 182.461C60.078 182.461 59.938 182.989 59.863 183.633C59.788 184.278 59.661 184.805 59.579 184.805C59.498 184.805 59.372 185.442 59.3 186.221C59.228 187 59.083 187.666 58.979 187.702C58.874 187.738 58.789 188.024 58.789 188.337C58.789 188.65 58.705 188.907 58.603 188.907C58.501 188.907 58.358 189.434 58.285 190.078C58.212 190.723 58.086 191.25 58.005 191.25C57.924 191.25 57.797 191.734 57.723 192.325C57.649 192.915 57.507 193.399 57.408 193.399C57.308 193.399 57.227 193.662 57.227 193.985C57.227 194.307 57.143 194.571 57.041 194.571C56.939 194.571 56.796 195.098 56.723 195.743C56.65 196.387 56.522 196.914 56.439 196.914C56.356 196.914 56.227 197.442 56.152 198.086C56.077 198.731 55.937 199.258 55.84 199.258C55.743 199.258 55.664 199.566 55.664 199.942C55.664 200.318 55.583 200.625 55.484 200.625C55.385 200.625 55.243 201.197 55.169 201.895C55.094 202.593 54.955 203.164 54.86 203.164C54.765 203.164 54.687 203.516 54.687 203.946C54.687 204.375 54.607 204.727 54.51 204.727C54.412 204.727 54.27 205.474 54.194 206.387C54.118 207.3 53.988 208.047 53.907 208.047C53.825 208.047 53.695 209.058 53.617 210.293C53.54 211.529 53.398 212.539 53.301 212.539C53.204 212.539 53.125 213.023 53.125 213.614C53.125 214.204 53.049 214.688 52.957 214.688C52.865 214.688 52.726 215.851 52.649 217.274C52.572 218.696 52.434 219.906 52.343 219.962C52.252 220.018 52.114 221.667 52.037 223.626C51.959 225.585 51.821 227.188 51.729 227.188C51.637 227.188 51.562 228.814 51.562 230.801C51.562 232.788 51.488 234.414 51.396 234.414C51.305 234.414 51.167 236.368 51.09 238.757C51.01 241.228 50.867 243.15 50.758 243.218C50.639 243.291 50.521 247.23 50.447 253.621C50.381 259.278 50.254 263.907 50.164 263.907C50.074 263.907 50 270.147 50 277.774C50 285.401 50.074 291.641 50.164 291.641C50.254 291.641 50.387 293.592 50.459 295.976C50.53 298.36 50.663 300.36 50.754 300.419C50.845 300.479 50.981 301.451 51.057 302.578C51.132 303.706 51.277 304.659 51.378 304.694C51.48 304.73 51.562 305.236 51.562 305.817C51.562 306.399 51.642 306.875 51.74 306.875C51.838 306.875 51.98 307.622 52.056 308.535C52.132 309.449 52.263 310.196 52.348 310.196C52.432 310.196 52.562 310.723 52.637 311.368C52.711 312.012 52.852 312.539 52.949 312.539C53.046 312.539 53.125 312.891 53.125 313.321C53.125 313.75 53.203 314.102 53.297 314.102C53.392 314.102 53.531 314.673 53.606 315.371C53.681 316.07 53.818 316.641 53.912 316.641C54.006 316.641 54.142 317.168 54.215 317.813C54.288 318.457 54.424 318.985 54.517 318.985C54.611 318.985 54.687 319.16 54.687 319.375C54.687 319.59 54.767 319.766 54.864 319.766C54.962 319.766 55.102 320.205 55.176 320.743C55.25 321.28 55.39 321.719 55.487 321.719C55.584 321.719 55.664 321.939 55.664 322.207C55.664 322.476 55.741 322.696 55.834 322.696C55.928 322.696 56.061 323.047 56.13 323.477C56.198 323.907 56.33 324.258 56.423 324.258C56.515 324.258 56.647 324.61 56.716 325.039C56.784 325.469 56.927 325.821 57.033 325.821C57.14 325.821 57.227 325.952 57.227 326.114C57.227 326.275 57.303 326.407 57.397 326.407C57.491 326.407 57.623 326.758 57.692 327.188C57.761 327.618 57.903 327.969 58.008 327.969C58.113 327.969 58.255 328.321 58.323 328.75C58.392 329.18 58.525 329.532 58.619 329.532C58.712 329.532 58.789 329.663 58.789 329.825C58.789 329.986 58.867 330.118 58.963 330.118C59.058 330.118 59.194 330.425 59.264 330.801C59.335 331.177 59.47 331.485 59.564 331.485C59.658 331.485 59.792 331.748 59.863 332.071C59.934 332.393 60.073 332.657 60.172 332.657C60.271 332.657 60.352 332.788 60.352 332.95C60.352 333.111 60.43 333.243 60.525 333.243C60.621 333.243 60.756 333.55 60.827 333.926C60.897 334.302 61.03 334.61 61.12 334.61C61.211 334.61 61.345 334.846 61.418 335.135C61.49 335.424 61.714 335.803 61.914 335.977C62.114 336.151 62.338 336.529 62.41 336.819C62.483 337.108 62.621 337.344 62.716 337.344C62.812 337.344 62.891 337.523 62.891 337.741C62.891 337.959 63.022 338.188 63.184 338.25C63.345 338.312 63.476 338.485 63.476 338.634C63.477 338.784 63.558 338.907 63.659 338.907C63.759 338.907 63.902 339.1 63.977 339.337C64.053 339.574 64.234 339.887 64.381 340.034C64.528 340.181 64.648 340.406 64.648 340.534C64.648 340.662 64.868 340.932 65.137 341.134C65.405 341.335 65.625 341.58 65.625 341.677C65.625 341.774 65.845 342.074 66.113 342.342C66.382 342.611 66.601 342.918 66.602 343.025C66.602 343.132 66.953 343.554 67.383 343.962C67.812 344.371 68.164 344.767 68.164 344.842C68.164 344.989 68.503 345.427 68.906 345.801C69.045 345.93 69.265 346.148 69.394 346.286C70.437 347.398 70.755 347.696 70.9 347.696C70.992 347.696 71.123 347.871 71.191 348.086C71.26 348.301 71.438 348.477 71.588 348.477C71.739 348.477 72.131 348.741 72.461 349.063C72.791 349.385 73.107 349.649 73.165 349.649C73.223 349.649 73.393 349.759 73.542 349.893C74.158 350.445 74.366 350.584 74.771 350.712C75.004 350.786 75.195 350.929 75.195 351.029C75.195 351.129 75.327 351.211 75.488 351.211C75.649 351.211 75.781 351.29 75.781 351.385C75.781 351.481 76.001 351.615 76.269 351.682C76.538 351.749 76.758 351.884 76.758 351.981C76.758 352.078 77.021 352.215 77.344 352.285C77.666 352.356 77.93 352.495 77.93 352.594C77.93 352.693 78.061 352.774 78.223 352.774C78.384 352.774 78.516 352.858 78.516 352.96C78.516 353.063 78.823 353.204 79.199 353.275C79.575 353.345 79.883 353.48 79.883 353.574C79.883 353.669 80.234 353.802 80.664 353.871C81.094 353.939 81.445 354.072 81.445 354.166C81.445 354.26 81.621 354.336 81.836 354.336C82.051 354.336 82.227 354.413 82.227 354.507C82.227 354.6 82.578 354.733 83.008 354.802C83.437 354.871 83.789 355.002 83.789 355.095C83.789 355.187 84.316 355.322 84.961 355.395C85.605 355.468 86.133 355.611 86.133 355.713C86.133 355.815 86.396 355.899 86.719 355.899C87.041 355.899 87.305 355.977 87.305 356.074C87.305 356.17 88.008 356.311 88.867 356.387C89.727 356.463 90.43 356.604 90.43 356.7C90.43 356.797 90.906 356.875 91.488 356.875C92.151 356.875 92.575 356.965 92.626 357.116C92.743 357.468 104.717 357.471 104.834 357.119C104.888 356.958 105.34 356.875 106.169 356.875C106.858 356.875 107.422 356.798 107.422 356.703C107.422 356.609 108.345 356.468 109.473 356.392C110.601 356.315 111.523 356.172 111.523 356.075C111.523 355.978 111.963 355.899 112.5 355.899C113.037 355.899 113.477 355.822 113.477 355.729C113.477 355.635 114.092 355.498 114.844 355.424C115.596 355.35 116.211 355.214 116.211 355.121C116.211 355.029 116.782 354.892 117.48 354.817C118.179 354.743 118.75 354.604 118.75 354.509C118.75 354.414 118.97 354.336 119.238 354.336C119.507 354.336 119.727 354.26 119.727 354.167C119.727 354.073 120.091 353.948 120.536 353.888C120.981 353.829 121.399 353.694 121.464 353.589C121.529 353.484 121.999 353.335 122.51 353.259C123.02 353.183 123.437 353.042 123.437 352.947C123.437 352.852 123.657 352.774 123.926 352.774C124.194 352.774 124.414 352.687 124.414 352.581C124.414 352.475 124.766 352.332 125.195 352.263C125.625 352.194 125.976 352.062 125.976 351.97C125.977 351.877 126.328 351.746 126.758 351.677C127.187 351.608 127.539 351.475 127.539 351.382C127.539 351.288 127.671 351.211 127.832 351.211C127.993 351.211 128.125 351.124 128.125 351.018C128.125 350.912 128.476 350.769 128.906 350.7C129.336 350.632 129.687 350.506 129.687 350.421C129.687 350.335 129.951 350.208 130.273 350.137C130.596 350.066 130.859 349.927 130.859 349.829C130.859 349.73 131.035 349.649 131.25 349.649C131.465 349.649 131.641 349.568 131.641 349.469C131.641 349.37 131.904 349.231 132.227 349.16C132.549 349.09 132.812 348.955 132.812 348.861C132.812 348.767 133.12 348.632 133.496 348.562C133.872 348.491 134.18 348.355 134.18 348.26C134.18 348.164 134.311 348.086 134.473 348.086C134.634 348.086 134.766 348.005 134.766 347.906C134.766 347.808 135.029 347.669 135.352 347.598C135.674 347.527 135.937 347.39 135.937 347.293C135.937 347.196 136.157 347.062 136.426 346.995C136.694 346.927 136.914 346.794 136.914 346.698C136.914 346.602 137.046 346.524 137.207 346.524C137.368 346.524 137.5 346.438 137.5 346.332C137.5 346.227 137.72 346.085 137.988 346.018C138.257 345.951 138.477 345.817 138.477 345.721C138.477 345.626 138.608 345.547 138.769 345.547C138.931 345.547 139.062 345.465 139.062 345.365C139.062 345.265 139.256 345.121 139.493 345.046C139.729 344.971 140.043 344.789 140.19 344.643C140.337 344.496 140.562 344.375 140.69 344.375C140.818 344.375 141.088 344.156 141.29 343.887C141.491 343.618 141.776 343.399 141.922 343.399C142.068 343.399 142.187 343.317 142.187 343.217C142.187 343.116 142.359 342.98 142.568 342.914C142.777 342.847 143.003 342.622 143.07 342.412C143.136 342.203 143.316 342.032 143.47 342.032C143.843 342.032 146.875 338.988 146.875 338.614C146.875 338.452 146.953 338.321 147.048 338.321C147.229 338.321 150.147 335.656 151.433 334.317C153.202 332.474 157.683 326.656 158.335 325.356C158.719 324.591 159.647 322.922 160.397 321.647C162.309 318.397 165.368 311.675 166.498 308.24C166.798 307.328 167.474 305.409 168.001 303.975C168.954 301.381 170.307 296.263 171.466 290.86C171.8 289.302 172.335 286.929 172.654 285.586C172.973 284.243 173.362 282.398 173.518 281.485C173.674 280.572 174.033 278.506 174.316 276.895C174.978 273.134 175.147 271.967 175.3 270.098C175.424 268.601 175.442 268.557 176.369 267.616C176.887 267.089 177.462 266.403 177.647 266.09C178.268 265.039 181.791 263.603 185.612 262.843C188.626 262.243 194.215 260.836 198.469 259.607C205.826 257.48 217.157 256.574 222.754 257.665C223.828 257.875 224.729 258.046 224.756 258.047C224.783 258.047 224.806 261.101 224.807 264.834C224.81 271.89 225.042 279.616 225.391 284.317C225.503 285.821 225.726 288.809 225.886 290.957C226.046 293.106 226.268 296.226 226.379 297.891C226.873 305.337 227.398 309.467 227.939 310.154C228.135 310.403 228.352 311.107 228.423 311.719C228.609 313.336 230.145 320.958 231.265 325.821C233.385 335.029 235.612 340.101 239.351 344.237C239.622 344.537 239.844 344.826 239.844 344.88C239.844 345.131 243.099 348.477 243.344 348.477C243.443 348.477 243.788 348.741 244.111 349.063C244.433 349.385 244.791 349.649 244.907 349.649C245.022 349.649 245.117 349.731 245.117 349.831C245.117 349.931 245.311 350.075 245.547 350.15C245.784 350.225 246.098 350.406 246.245 350.553C246.392 350.7 246.638 350.821 246.791 350.821C246.945 350.821 247.07 350.909 247.07 351.016C247.07 351.123 247.202 351.211 247.363 351.211C247.524 351.211 247.656 351.295 247.656 351.398C247.656 351.5 247.958 351.641 248.326 351.71C248.695 351.779 249.044 351.959 249.101 352.109C249.159 352.26 249.341 352.383 249.506 352.383C249.67 352.383 249.805 352.471 249.805 352.578C249.805 352.686 249.98 352.774 250.195 352.774C250.41 352.774 250.586 352.855 250.586 352.954C250.586 353.052 250.85 353.191 251.172 353.262C251.494 353.333 251.758 353.462 251.758 353.549C251.758 353.637 251.994 353.767 252.283 353.84C252.572 353.912 252.951 354.136 253.125 354.336C253.299 354.537 253.678 354.76 253.967 354.833C254.256 354.905 254.492 355.038 254.492 355.127C254.492 355.216 254.888 355.348 255.371 355.421C255.854 355.493 256.25 355.63 256.25 355.726C256.25 355.821 256.382 355.899 256.543 355.899C256.704 355.899 256.836 355.986 256.836 356.092C256.836 356.198 257.187 356.341 257.617 356.41C258.047 356.478 258.398 356.611 258.398 356.705C258.398 356.799 258.611 356.875 258.87 356.875C259.13 356.875 259.372 356.965 259.409 357.074C259.445 357.184 259.936 357.328 260.499 357.394C261.062 357.461 261.523 357.586 261.523 357.672C261.523 357.758 262.139 357.889 262.891 357.963C263.643 358.037 264.258 358.174 264.258 358.268C264.258 358.361 266.016 358.438 268.164 358.438C270.638 358.438 272.07 358.509 272.07 358.633C272.07 358.755 273.21 358.828 275.098 358.828C276.986 358.828 278.125 358.755 278.125 358.633C278.125 358.517 278.841 358.438 279.883 358.438C280.85 358.438 281.641 358.359 281.641 358.263C281.641 358.166 282.827 358.024 284.277 357.946C285.727 357.868 286.914 357.739 286.914 357.658C286.914 357.578 287.529 357.451 288.281 357.377C289.033 357.303 289.648 357.16 289.648 357.059C289.648 356.958 289.956 356.875 290.332 356.875C290.708 356.875 291.016 356.799 291.016 356.705C291.016 356.611 291.367 356.478 291.797 356.41C292.226 356.341 292.578 356.198 292.578 356.092C292.578 355.986 292.798 355.899 293.066 355.899C293.335 355.899 293.555 355.818 293.555 355.719C293.555 355.62 293.818 355.481 294.141 355.41C294.463 355.34 294.727 355.205 294.727 355.111C294.727 355.017 295.034 354.882 295.41 354.812C295.786 354.741 296.094 354.605 296.094 354.51C296.094 354.414 296.232 354.336 296.401 354.336C296.569 354.336 296.839 354.204 297 354.043C297.162 353.882 297.507 353.75 297.768 353.75C298.029 353.75 298.242 353.669 298.242 353.571C298.242 353.472 298.506 353.333 298.828 353.262C299.15 353.191 299.414 353.052 299.414 352.954C299.414 352.855 299.546 352.774 299.707 352.774C299.868 352.774 300 352.696 300 352.6C300 352.505 300.308 352.369 300.684 352.298C301.06 352.228 301.367 352.096 301.367 352.005C301.367 351.914 301.604 351.78 301.893 351.708C302.182 351.635 302.56 351.412 302.734 351.211C302.908 351.011 303.287 350.787 303.576 350.715C303.865 350.642 304.101 350.505 304.102 350.409C304.102 350.313 304.28 350.235 304.498 350.235C304.716 350.235 304.946 350.103 305.007 349.942C305.069 349.781 305.242 349.649 305.392 349.649C305.542 349.649 305.664 349.567 305.664 349.467C305.664 349.366 305.862 349.222 306.103 349.146C306.345 349.071 306.736 348.801 306.973 348.547C307.21 348.294 307.517 348.083 307.657 348.078C307.796 348.073 308.126 347.81 308.389 347.492C308.653 347.174 309.026 346.914 309.219 346.914C309.412 346.914 309.57 346.832 309.57 346.732C309.57 346.48 312.131 343.985 312.389 343.985C312.63 343.985 315.785 340.693 315.904 340.318C315.976 340.09 316.202 339.85 316.406 339.785C316.61 339.721 316.831 339.497 316.898 339.287C316.964 339.078 317.1 338.907 317.201 338.907C317.301 338.907 317.383 338.772 317.383 338.607C317.383 338.443 317.515 338.258 317.676 338.196C317.837 338.134 317.969 337.957 317.969 337.802C317.969 337.647 318.176 337.327 318.43 337.091C318.683 336.854 318.953 336.463 319.029 336.221C319.105 335.979 319.249 335.782 319.349 335.782C319.449 335.782 319.531 335.65 319.531 335.489C319.531 335.327 319.617 335.196 319.723 335.196C319.828 335.196 319.97 334.976 320.037 334.707C320.104 334.439 320.228 334.219 320.312 334.219C320.397 334.219 320.521 333.999 320.588 333.731C320.655 333.462 320.797 333.243 320.902 333.243C321.007 333.243 321.094 333.12 321.094 332.97C321.094 332.821 321.226 332.648 321.387 332.586C321.548 332.524 321.68 332.301 321.68 332.09C321.68 331.879 321.852 331.652 322.063 331.584C322.305 331.508 322.493 331.218 322.571 330.804C322.639 330.441 322.818 330.097 322.968 330.04C323.119 329.982 323.242 329.819 323.242 329.678C323.242 329.538 323.418 329.296 323.632 329.142C323.846 328.987 324.075 328.578 324.139 328.233C324.204 327.888 324.38 327.558 324.531 327.5C324.681 327.443 324.805 327.261 324.805 327.096C324.805 326.932 324.893 326.797 325 326.797C325.107 326.797 325.195 326.631 325.195 326.427C325.195 326.224 325.327 326.007 325.488 325.945C325.649 325.883 325.781 325.698 325.781 325.534C325.781 325.369 325.859 325.235 325.955 325.235C326.05 325.235 326.185 324.932 326.255 324.562C326.331 324.152 326.523 323.844 326.744 323.774C326.966 323.704 327.157 323.396 327.234 322.982C327.304 322.61 327.438 322.305 327.532 322.305C327.626 322.305 327.761 322.041 327.832 321.719C327.903 321.397 328.042 321.133 328.14 321.133C328.239 321.133 328.32 321.001 328.32 320.84C328.32 320.679 328.397 320.547 328.491 320.547C328.584 320.547 328.717 320.196 328.786 319.766C328.855 319.336 328.988 318.985 329.082 318.985C329.176 318.985 329.311 318.677 329.382 318.301C329.452 317.925 329.594 317.618 329.696 317.618C329.799 317.618 329.883 317.486 329.883 317.325C329.883 317.163 329.959 317.032 330.053 317.032C330.147 317.032 330.28 316.68 330.348 316.25C330.417 315.821 330.56 315.469 330.666 315.469C330.772 315.469 330.859 315.337 330.859 315.176C330.859 315.015 330.936 314.883 331.03 314.883C331.123 314.883 331.256 314.532 331.325 314.102C331.394 313.672 331.528 313.321 331.625 313.321C331.721 313.321 331.86 312.881 331.934 312.344C332.007 311.807 332.147 311.367 332.245 311.368C332.342 311.368 332.422 311.148 332.422 310.879C332.422 310.611 332.498 310.391 332.592 310.391C332.686 310.391 332.819 310.039 332.887 309.61C332.956 309.18 333.091 308.828 333.187 308.828C333.283 308.828 333.422 308.389 333.496 307.852C333.57 307.315 333.71 306.875 333.807 306.875C333.905 306.875 333.984 306.7 333.984 306.485C333.984 306.27 334.064 306.094 334.162 306.094C334.26 306.094 334.4 305.743 334.473 305.313C334.545 304.883 334.674 304.532 334.758 304.532C334.842 304.532 334.967 304.18 335.036 303.75C335.105 303.321 335.248 302.969 335.354 302.969C335.46 302.969 335.547 302.749 335.547 302.481C335.547 302.212 335.634 301.993 335.74 301.993C335.846 301.993 335.989 301.641 336.058 301.211C336.126 300.782 336.251 300.43 336.335 300.43C336.418 300.43 336.547 299.991 336.621 299.453C336.695 298.916 336.835 298.477 336.932 298.477C337.03 298.477 337.109 298.257 337.109 297.989C337.109 297.72 337.187 297.5 337.282 297.5C337.378 297.5 337.515 297.105 337.587 296.621C337.66 296.138 337.793 295.743 337.884 295.743C337.975 295.743 338.11 295.303 338.184 294.766C338.257 294.229 338.397 293.789 338.495 293.789C338.592 293.789 338.672 293.526 338.672 293.203C338.672 292.881 338.748 292.618 338.842 292.618C338.935 292.618 339.072 292.09 339.145 291.446C339.217 290.801 339.354 290.274 339.447 290.274C339.541 290.274 339.678 289.702 339.753 289.004C339.828 288.306 339.967 287.735 340.062 287.735C340.157 287.735 340.234 287.471 340.234 287.149C340.234 286.826 340.312 286.563 340.407 286.563C340.502 286.563 340.64 286.079 340.714 285.489C340.788 284.898 340.93 284.414 341.03 284.414C341.129 284.414 341.211 284.07 341.211 283.649C341.211 283.229 341.298 282.855 341.404 282.819C341.511 282.784 341.655 282.205 341.725 281.534C341.795 280.862 341.918 280.313 341.997 280.313C342.076 280.313 342.203 279.654 342.279 278.848C342.354 278.042 342.496 277.383 342.595 277.383C342.693 277.383 342.773 277.032 342.773 276.602C342.773 276.172 342.852 275.821 342.948 275.821C343.045 275.821 343.186 275.118 343.262 274.258C343.338 273.399 343.473 272.696 343.563 272.696C343.653 272.696 343.787 272.08 343.861 271.328C343.935 270.576 344.072 269.961 344.166 269.961C344.259 269.961 344.336 269.654 344.336 269.278C344.336 268.902 344.415 268.594 344.511 268.594C344.607 268.594 344.748 267.891 344.824 267.032C344.9 266.172 345.036 265.469 345.126 265.469C345.215 265.469 345.349 264.854 345.424 264.102C345.498 263.35 345.635 262.735 345.728 262.735C345.822 262.735 345.898 262.383 345.898 261.953C345.898 261.524 345.975 261.172 346.068 261.172C346.162 261.172 346.299 260.395 346.374 259.445L346.509 257.718L349.963 256.038C351.863 255.114 354.14 254.093 355.023 253.769C355.905 253.444 356.963 253.008 357.374 252.798C357.785 252.589 358.996 252.135 360.066 251.789C361.136 251.444 362.583 250.903 363.281 250.587C370.061 247.518 379.424 245.664 391.727 244.956C393.645 244.845 395.332 244.713 395.474 244.663C396.426 244.326 414.389 243.537 419.085 243.625C423.464 243.707 423.405 243.675 422.878 245.651C422.679 246.4 422.411 247.509 422.283 248.117C422.137 248.809 421.774 249.612 421.31 250.266C419.522 252.788 418.976 253.963 418.284 256.782C415.076 269.85 417.668 275.39 426.953 275.312C432.724 275.263 436.407 273.465 439.182 269.341C439.707 268.562 440.606 267.308 441.181 266.554C442.297 265.091 442.773 264.25 443.155 263.071C443.286 262.665 443.674 261.915 444.018 261.405C445.351 259.424 447.049 253.617 447.456 249.649C447.561 248.628 447.772 246.72 447.926 245.408C448.141 243.567 448.157 242.682 447.996 241.533C447.824 240.309 447.835 240.014 448.057 239.877C448.412 239.658 448.474 228.237 448.122 228.011C448.002 227.934 447.842 227.366 447.766 226.748C447.69 226.131 447.547 225.625 447.447 225.625C447.347 225.625 447.266 225.493 447.266 225.332C447.266 225.171 447.185 225.039 447.086 225.039C446.987 225.039 446.848 224.776 446.777 224.453C446.706 224.131 446.569 223.868 446.473 223.868C446.376 223.868 446.246 223.665 446.183 223.417C446.121 223.169 445.856 222.805 445.594 222.608C445.332 222.411 445.117 222.087 445.117 221.887C445.117 221.687 445.036 221.524 444.937 221.524C444.702 221.524 443.555 220.376 443.555 220.142C443.555 220.042 443.376 219.961 443.158 219.961C442.94 219.961 442.712 219.833 442.652 219.676C442.591 219.519 442.352 219.33 442.121 219.257C441.889 219.184 441.562 218.967 441.395 218.775C441.227 218.582 440.854 218.366 440.565 218.293C440.275 218.22 440.039 218.09 440.039 218.002C440.039 217.915 439.775 217.786 439.453 217.715C439.131 217.644 438.867 217.506 438.867 217.407C438.867 217.308 438.691 217.227 438.477 217.227C438.262 217.227 438.086 217.14 438.086 217.034C438.086 216.928 437.734 216.785 437.305 216.716C436.875 216.647 436.523 216.52 436.523 216.433C436.523 216.346 436.128 216.215 435.644 216.142C435.161 216.07 434.766 215.933 434.766 215.838C434.766 215.742 434.546 215.664 434.277 215.664C434.009 215.664 433.789 215.588 433.789 215.494C433.789 215.4 433.437 215.267 433.008 215.199C432.578 215.13 432.227 214.988 432.227 214.883C432.227 214.778 431.875 214.636 431.445 214.568C431.016 214.499 430.664 214.366 430.664 214.272C430.664 214.179 430.32 214.102 429.899 214.102C429.478 214.102 429.099 213.997 429.057 213.869C428.959 213.575 407.167 213.622 407.064 213.916C407.026 214.022 405.754 214.102 404.085 214.102C402.483 214.102 401.172 214.176 401.172 214.266C401.172 214.357 399.265 214.49 396.933 214.562C394.602 214.635 392.644 214.777 392.581 214.878C392.519 214.979 391.174 215.122 389.593 215.197C388.012 215.272 386.719 215.408 386.719 215.499C386.719 215.59 385.884 215.664 384.863 215.664C383.843 215.664 383.008 215.739 383.008 215.831C383.008 215.923 381.889 216.06 380.522 216.136C379.154 216.212 377.99 216.346 377.934 216.433C377.878 216.52 376.799 216.655 375.537 216.733C374.275 216.811 373.242 216.954 373.242 217.051C373.242 217.148 372.803 217.227 372.266 217.227C371.728 217.227 371.289 217.305 371.289 217.401C371.289 217.497 370.498 217.639 369.531 217.715C368.564 217.792 367.773 217.924 367.773 218.009C367.773 218.093 367.07 218.225 366.211 218.301C365.352 218.377 364.648 218.518 364.648 218.614C364.648 218.711 364.297 218.789 363.867 218.789C363.437 218.789 363.086 218.866 363.086 218.959C363.086 219.053 362.471 219.19 361.719 219.264C360.967 219.338 360.351 219.469 360.352 219.555C360.352 219.64 359.802 219.768 359.131 219.838C358.459 219.908 357.881 220.052 357.845 220.158C357.809 220.265 357.567 220.352 357.308 220.352C357.048 220.352 356.836 220.428 356.836 220.521C356.836 220.615 356.472 220.74 356.026 220.8C355.581 220.859 355.164 220.994 355.099 221.099C355.034 221.204 354.563 221.353 354.053 221.429C353.542 221.506 353.125 221.646 353.125 221.741C353.125 221.836 352.993 221.914 352.832 221.914C352.671 221.914 352.539 221.994 352.539 222.091C352.539 222.189 352.1 222.329 351.562 222.403C351.025 222.477 350.586 222.61 350.586 222.698C350.586 222.787 350.322 222.918 350 222.989C349.678 223.059 349.414 223.198 349.414 223.297C349.414 223.396 349.194 223.477 348.926 223.477C348.657 223.477 348.437 223.561 348.437 223.663C348.437 223.766 348.13 223.908 347.754 223.978C347.378 224.049 347.07 224.184 347.07 224.28C347.07 224.375 346.951 224.453 346.805 224.453C346.588 224.453 346.523 222.971 346.441 216.21C346.37 210.308 346.279 207.946 346.12 207.893C345.985 207.848 345.898 207.328 345.898 206.566C345.898 205.877 345.821 205.313 345.726 205.313C345.632 205.313 345.492 204.478 345.415 203.457C345.339 202.437 345.205 201.602 345.119 201.602C345.033 201.602 344.9 200.899 344.824 200.039C344.748 199.18 344.607 198.477 344.511 198.477C344.415 198.477 344.336 198.169 344.336 197.793C344.336 197.417 344.255 197.11 344.156 197.11C344.057 197.11 343.915 196.538 343.84 195.84C343.766 195.142 343.633 194.571 343.546 194.571C343.459 194.571 343.327 194.087 343.253 193.496C343.179 192.906 343.041 192.422 342.946 192.422C342.851 192.422 342.773 192.202 342.773 191.934C342.773 191.665 342.695 191.446 342.6 191.446C342.505 191.446 342.368 191.05 342.295 190.567C342.223 190.083 342.092 189.688 342.005 189.688C341.918 189.688 341.791 189.336 341.722 188.907C341.653 188.477 341.51 188.125 341.404 188.125C341.298 188.125 341.211 187.906 341.211 187.637C341.211 187.368 341.124 187.149 341.018 187.149C340.912 187.149 340.769 186.797 340.7 186.368C340.631 185.938 340.498 185.586 340.405 185.586C340.311 185.586 340.234 185.41 340.234 185.196C340.234 184.981 340.154 184.805 340.056 184.805C339.958 184.805 339.819 184.453 339.746 184.024C339.673 183.594 339.535 183.243 339.438 183.243C339.341 183.243 339.206 182.891 339.137 182.461C339.069 182.032 338.936 181.68 338.842 181.68C338.748 181.68 338.672 181.548 338.672 181.387C338.672 181.226 338.585 181.094 338.479 181.094C338.373 181.094 338.23 180.743 338.161 180.313C338.092 179.883 337.96 179.532 337.868 179.532C337.775 179.532 337.644 179.18 337.575 178.75C337.506 178.321 337.373 177.969 337.28 177.969C337.186 177.969 337.109 177.749 337.109 177.481C337.109 177.212 337.022 176.993 336.916 176.993C336.81 176.993 336.667 176.641 336.598 176.211C336.53 175.782 336.404 175.43 336.319 175.43C336.233 175.43 336.106 175.166 336.035 174.844C335.964 174.522 335.825 174.258 335.727 174.258C335.628 174.258 335.547 174.038 335.547 173.77C335.547 173.501 335.46 173.282 335.354 173.282C335.248 173.282 335.105 172.93 335.036 172.5C334.967 172.071 334.835 171.719 334.743 171.719C334.65 171.719 334.519 171.368 334.45 170.938C334.381 170.508 334.248 170.157 334.155 170.157C334.061 170.157 333.984 170.025 333.984 169.864C333.984 169.702 333.9 169.571 333.798 169.571C333.695 169.571 333.554 169.263 333.483 168.887C333.413 168.511 333.285 168.203 333.198 168.203C333.112 168.203 332.983 167.852 332.91 167.422C332.837 166.992 332.698 166.641 332.6 166.641C332.502 166.641 332.422 166.421 332.422 166.153C332.422 165.884 332.335 165.664 332.229 165.664C332.123 165.664 331.98 165.313 331.911 164.883C331.842 164.453 331.717 164.102 331.633 164.102C331.549 164.102 331.42 163.75 331.348 163.321C331.275 162.891 331.135 162.539 331.037 162.539C330.939 162.539 330.859 162.364 330.859 162.149C330.859 161.934 330.781 161.758 330.686 161.758C330.59 161.758 330.454 161.451 330.384 161.075C330.313 160.699 330.172 160.391 330.069 160.391C329.967 160.391 329.883 160.259 329.883 160.098C329.883 159.937 329.802 159.805 329.703 159.805C329.604 159.805 329.465 159.541 329.394 159.219C329.324 158.897 329.187 158.633 329.09 158.633C328.993 158.633 328.858 158.413 328.791 158.145C328.724 157.876 328.59 157.657 328.494 157.657C328.399 157.657 328.32 157.562 328.32 157.447C328.32 157.332 328.21 157.116 328.076 156.966C327.524 156.351 327.385 156.142 327.257 155.737C327.183 155.504 327.04 155.313 326.94 155.313C326.84 155.313 326.758 155.225 326.758 155.118C326.758 154.865 321.35 149.453 321.098 149.453C320.858 149.453 318.359 146.943 318.359 146.702C318.359 146.604 318.217 146.524 318.044 146.524C317.87 146.524 317.207 145.996 316.57 145.352C315.934 144.707 315.306 144.18 315.175 144.18C315.044 144.18 314.771 143.96 314.57 143.692C314.368 143.423 314.084 143.203 313.937 143.203C313.791 143.203 313.672 143.121 313.672 143.021C313.672 142.921 313.474 142.777 313.232 142.7C312.991 142.624 312.661 142.411 312.5 142.227C312.339 142.043 311.991 141.824 311.728 141.741C311.464 141.658 311.128 141.469 310.981 141.322C310.834 141.175 310.589 141.055 310.435 141.055C310.282 141.055 310.156 140.967 310.156 140.86C310.156 140.752 310.024 140.664 309.863 140.664C309.702 140.664 309.57 140.586 309.57 140.491C309.57 140.395 309.263 140.26 308.887 140.189C308.511 140.118 308.203 139.978 308.203 139.877C308.203 139.775 307.852 139.636 307.422 139.568C306.992 139.499 306.641 139.366 306.641 139.272C306.641 139.179 306.509 139.102 306.348 139.102C306.186 139.102 306.055 139.025 306.055 138.932C306.055 138.838 305.703 138.705 305.273 138.636C304.844 138.568 304.492 138.424 304.492 138.318C304.492 138.212 304.28 138.125 304.02 138.125C303.761 138.125 303.519 138.04 303.483 137.937C303.447 137.833 302.891 137.688 302.246 137.614C301.602 137.541 301.011 137.384 300.935 137.266C300.735 136.958 286.564 136.964 286.37 137.272C286.293 137.393 285.593 137.556 284.814 137.633C284.036 137.711 283.398 137.853 283.398 137.95C283.398 138.046 283.179 138.125 282.91 138.125C282.642 138.125 282.422 138.203 282.422 138.298C282.422 138.393 281.938 138.531 281.348 138.605C280.757 138.679 280.273 138.821 280.273 138.921C280.273 139.02 280.01 139.102 279.687 139.102C279.365 139.102 279.102 139.182 279.102 139.279C279.102 139.376 278.662 139.516 278.125 139.59C277.588 139.664 277.148 139.803 277.148 139.899C277.148 139.995 276.797 140.13 276.367 140.199C275.937 140.267 275.586 140.4 275.586 140.494C275.586 140.588 275.454 140.664 275.293 140.664C275.132 140.664 275 140.748 275 140.851C275 140.953 274.692 141.095 274.316 141.166C273.94 141.236 273.633 141.365 273.633 141.452C273.633 141.539 273.369 141.668 273.047 141.739C272.725 141.809 272.461 141.948 272.461 142.047C272.461 142.146 272.329 142.227 272.168 142.227C272.007 142.227 271.875 142.311 271.875 142.413C271.875 142.516 271.567 142.658 271.191 142.728C270.815 142.799 270.508 142.931 270.508 143.022C270.508 143.114 270.178 143.279 269.775 143.39C269.372 143.501 268.626 143.834 268.117 144.13C267.153 144.691 260.938 150.563 260.937 150.913C260.937 151.023 260.607 151.438 260.205 151.834C259.375 152.65 258.984 153.102 258.984 153.247C258.984 153.302 258.743 153.599 258.447 153.909C257.411 154.994 255.687 157.256 251.87 162.539C250.823 163.99 249.37 165.948 248.643 166.891C247.109 168.88 245.56 171.591 244.636 173.904C244.28 174.797 243.55 176.451 243.015 177.578C242.48 178.706 241.931 179.981 241.795 180.41C241.658 180.84 241.114 182.202 240.586 183.438C239.598 185.747 238.571 188.965 237.781 192.227C237.533 193.247 237.181 194.434 236.997 194.864C236.587 195.826 233.403 205.049 232.515 207.852C230.405 214.505 229.895 216.617 228.909 222.782C228.558 224.978 228.32 225.988 228.32 225.286C228.32 225.17 227.881 225.016 227.344 224.942C226.807 224.868 226.367 224.728 226.367 224.63C226.367 224.533 226.147 224.453 225.879 224.453C225.61 224.453 225.391 224.372 225.391 224.272C225.391 224.172 224.907 224.031 224.316 223.957C223.726 223.883 223.242 223.745 223.242 223.65C223.242 223.555 222.898 223.477 222.477 223.477C222.039 223.477 221.677 223.373 221.631 223.233C221.567 223.042 219.488 222.989 212.109 222.989C204.731 222.989 202.651 223.042 202.588 223.233C202.534 223.394 202.082 223.477 201.253 223.477C200.564 223.477 200 223.554 200 223.649C200 223.743 199.077 223.884 197.949 223.961C196.821 224.038 195.898 224.18 195.898 224.277C195.898 224.374 195.635 224.453 195.312 224.453C194.99 224.453 194.727 224.531 194.727 224.626C194.727 224.721 194.155 224.86 193.457 224.935C192.759 225.009 192.187 225.143 192.187 225.232C192.187 225.321 191.748 225.454 191.211 225.528C190.674 225.602 190.234 225.742 190.234 225.839C190.234 225.936 190.015 226.016 189.746 226.016C189.477 226.016 189.258 226.098 189.258 226.199C189.258 226.3 188.862 226.442 188.379 226.514C187.895 226.587 187.5 226.714 187.5 226.798C187.5 226.881 187.192 227.007 186.816 227.077C186.44 227.148 186.133 227.289 186.133 227.392C186.133 227.495 185.913 227.578 185.644 227.578C185.376 227.578 185.156 227.659 185.156 227.758C185.156 227.857 184.893 227.996 184.57 228.067C184.248 228.138 183.984 228.275 183.984 228.373C183.984 228.471 183.633 228.607 183.203 228.675C182.773 228.744 182.422 228.877 182.422 228.971C182.422 229.064 182.29 229.141 182.129 229.141C181.968 229.141 181.836 229.225 181.836 229.327C181.836 229.43 181.528 229.572 181.152 229.642C180.776 229.713 180.469 229.841 180.469 229.928C180.469 230.015 180.205 230.144 179.883 230.215C179.56 230.286 179.297 230.425 179.297 230.524C179.297 230.623 179.165 230.703 179.004 230.703C178.843 230.703 178.711 230.79 178.711 230.895C178.711 231 178.491 231.142 178.223 231.209C177.954 231.277 177.734 231.406 177.734 231.497C177.734 231.588 177.43 231.719 177.057 231.789C176.638 231.868 176.336 232.057 176.263 232.286C176.107 232.778 175.586 232.762 175.586 232.266C175.586 232.051 175.498 231.875 175.391 231.875C175.276 231.875 175.195 231.192 175.195 230.215C175.195 229.302 175.12 228.555 175.028 228.555C174.937 228.555 174.799 227.348 174.722 225.873C174.646 224.398 174.511 223.145 174.422 223.09C174.334 223.034 174.198 221.956 174.119 220.694C174.041 219.431 173.899 218.399 173.805 218.399C173.71 218.399 173.633 218.003 173.633 217.52C173.633 217.036 173.555 216.641 173.461 216.641C173.366 216.641 173.226 215.718 173.149 214.59C173.072 213.462 172.936 212.539 172.847 212.539C172.758 212.539 172.624 211.748 172.548 210.782C172.472 209.815 172.334 209.024 172.24 209.024C172.147 209.024 172.07 208.672 172.07 208.243C172.07 207.813 171.992 207.461 171.895 207.461C171.799 207.461 171.658 206.758 171.582 205.899C171.506 205.039 171.376 204.336 171.294 204.336C171.212 204.336 171.084 203.721 171.009 202.969C170.935 202.217 170.792 201.602 170.691 201.602C170.59 201.602 170.508 201.25 170.508 200.821C170.508 200.391 170.43 200.039 170.335 200.039C170.24 200.039 170.101 199.468 170.027 198.77C169.952 198.072 169.81 197.5 169.711 197.5C169.612 197.5 169.531 197.193 169.531 196.817C169.531 196.441 169.453 196.133 169.358 196.133C169.263 196.133 169.125 195.65 169.051 195.059C168.978 194.468 168.846 193.985 168.758 193.985C168.671 193.985 168.539 193.501 168.465 192.91C168.392 192.32 168.25 191.836 168.15 191.836C168.05 191.836 167.969 191.617 167.969 191.348C167.969 191.079 167.889 190.86 167.792 190.86C167.694 190.86 167.554 190.42 167.48 189.883C167.407 189.346 167.274 188.907 167.186 188.907C167.098 188.907 166.967 188.555 166.894 188.125C166.822 187.696 166.682 187.344 166.584 187.344C166.486 187.344 166.406 187.212 166.406 187.051C166.406 186.89 166.33 186.758 166.236 186.758C166.142 186.758 166.009 186.407 165.941 185.977C165.872 185.547 165.73 185.196 165.625 185.196C165.52 185.196 165.378 184.844 165.309 184.414C165.241 183.985 165.108 183.633 165.014 183.633C164.92 183.633 164.844 183.501 164.844 183.34C164.844 183.179 164.76 183.047 164.657 183.047C164.555 183.047 164.413 182.74 164.343 182.364C164.272 181.988 164.143 181.68 164.056 181.68C163.969 181.68 163.84 181.416 163.769 181.094C163.699 180.772 163.56 180.508 163.461 180.508C163.362 180.508 163.281 180.376 163.281 180.215C163.281 180.054 163.197 179.922 163.095 179.922C162.992 179.922 162.851 179.615 162.78 179.239C162.709 178.863 162.581 178.555 162.494 178.555C162.407 178.555 162.278 178.291 162.207 177.969C162.136 177.647 161.997 177.383 161.898 177.383C161.8 177.383 161.719 177.251 161.719 177.09C161.719 176.929 161.635 176.797 161.532 176.797C161.43 176.797 161.289 176.496 161.22 176.127C161.151 175.759 160.971 175.41 160.821 175.352C160.67 175.294 160.547 175.068 160.547 174.85C160.547 174.632 160.459 174.453 160.352 174.453C160.244 174.453 160.156 174.322 160.156 174.16C160.156 173.999 160.075 173.868 159.976 173.868C159.878 173.868 159.739 173.604 159.668 173.282C159.597 172.959 159.458 172.696 159.359 172.696C159.261 172.696 159.18 172.564 159.18 172.403C159.18 172.242 159.102 172.11 159.006 172.11C158.911 172.11 158.776 171.811 158.708 171.445C158.639 171.079 158.454 170.731 158.295 170.67C158.137 170.609 158.008 170.381 158.008 170.163C158.008 169.944 157.92 169.766 157.812 169.766C157.705 169.766 157.617 169.634 157.617 169.473C157.617 169.312 157.539 169.18 157.443 169.18C157.347 169.18 157.214 168.96 157.146 168.692C157.079 168.423 156.945 168.203 156.848 168.203C156.751 168.203 156.614 167.94 156.543 167.618C156.472 167.295 156.333 167.032 156.234 167.032C156.136 167.032 156.055 166.9 156.055 166.739C156.055 166.577 155.973 166.446 155.872 166.446C155.772 166.446 155.629 166.252 155.554 166.015C155.479 165.779 155.297 165.465 155.15 165.318C155.003 165.171 154.883 164.925 154.883 164.772C154.883 164.618 154.795 164.493 154.687 164.493C154.58 164.493 154.492 164.361 154.492 164.2C154.492 164.038 154.41 163.907 154.31 163.907C154.21 163.907 154.066 163.713 153.991 163.476C153.916 163.24 153.734 162.926 153.587 162.779C153.44 162.632 153.32 162.392 153.32 162.246C153.32 162.099 153.144 161.924 152.93 161.856C152.715 161.788 152.539 161.58 152.539 161.394C152.539 161.208 152.279 160.841 151.961 160.577C151.644 160.314 151.38 159.944 151.375 159.756C151.371 159.568 151.276 159.414 151.166 159.414C151.055 159.414 150.906 159.261 150.835 159.073C150.764 158.885 150.416 158.447 150.06 158.099C149.705 157.752 149.414 157.379 149.414 157.271C149.414 157.163 149.15 156.822 148.828 156.514C148.506 156.206 148.242 155.85 148.242 155.722C148.242 155.47 147.306 154.532 147.055 154.532C146.97 154.532 146.84 154.337 146.764 154.1C146.689 153.862 146.287 153.331 145.872 152.92C145.457 152.509 145.117 152.086 145.117 151.981C145.117 151.875 144.634 151.32 144.043 150.748C143.452 150.176 142.969 149.563 142.969 149.385C142.969 149.208 142.888 149.063 142.788 149.063C142.689 149.063 142.348 148.789 142.03 148.454C141.713 148.119 141.352 147.745 141.229 147.624C141.106 147.502 140.897 147.289 140.766 147.149C140.635 147.01 140.415 146.79 140.277 146.661C140.139 146.532 139.776 146.174 139.47 145.866C139.164 145.557 138.811 145.206 138.685 145.084C138.56 144.963 138.31 144.71 138.13 144.522C137.951 144.334 137.729 144.18 137.637 144.18C137.546 144.18 137.036 143.741 136.505 143.203C135.973 142.666 135.448 142.227 135.338 142.227C135.228 142.227 134.944 142.019 134.707 141.766C134.471 141.512 134.08 141.243 133.838 141.167C133.596 141.091 133.398 140.947 133.398 140.847C133.398 140.746 133.306 140.664 133.194 140.664C133.081 140.664 132.786 140.445 132.537 140.177C132.288 139.908 131.812 139.634 131.478 139.567C131.133 139.498 130.822 139.291 130.756 139.085C130.687 138.867 130.377 138.675 129.969 138.599C129.599 138.529 129.297 138.394 129.297 138.299C129.297 138.203 129.165 138.125 129.004 138.125C128.843 138.125 128.711 138.044 128.711 137.946C128.711 137.847 128.447 137.708 128.125 137.637C127.803 137.566 127.539 137.436 127.539 137.347C127.539 137.258 127.1 137.125 126.562 137.051C126.025 136.977 125.586 136.837 125.586 136.74C125.586 136.642 125.366 136.563 125.098 136.563C124.829 136.563 124.609 136.485 124.609 136.39C124.609 136.295 124.104 136.154 123.486 136.077C122.869 136 122.316 135.861 122.257 135.767C122.199 135.673 121.034 135.537 119.669 135.464C118.304 135.391 117.187 135.257 117.187 135.166C117.187 135.075 115.605 135 113.672 135C111.738 135 110.156 135.075 110.156 135.166ZM110.297 164.394C114.173 165.308 120.915 170.998 124.863 176.688C125.529 177.648 126.62 179.025 127.287 179.748C127.954 180.471 128.827 181.574 129.228 182.201C129.629 182.828 130.327 183.844 130.78 184.459C132.627 186.969 134.451 191.117 135.473 195.128C135.847 196.594 136.977 200.254 137.985 203.262C138.993 206.27 139.951 209.258 140.113 209.903C140.801 212.643 142.61 222.089 143.067 225.332C143.34 227.266 143.649 229.287 143.754 229.825C143.859 230.362 144.255 233.438 144.634 236.66C145.392 243.1 145.592 244.469 146.58 249.942C147.919 257.363 148.148 266.423 147.202 274.551C145.028 293.227 143.649 297.305 135.658 308.7C131.931 314.014 125.901 320.033 123.072 321.264C122.467 321.527 121.05 322.212 119.922 322.786C118.794 323.36 117.256 324.007 116.504 324.223C115.752 324.44 114.214 324.929 113.086 325.309C104.981 328.044 99.723 328.495 96.612 326.723C93.898 325.177 87.899 318.464 86.729 315.664C86.482 315.074 86.109 314.348 85.9 314.053C85.691 313.758 85.183 312.527 84.77 311.319C84.358 310.11 83.697 308.199 83.301 307.071C82.762 305.537 82.342 303.616 81.634 299.453C79.582 287.389 79.335 281.222 80.184 263.321C80.345 259.937 80.557 252.862 80.656 247.598C80.807 239.56 80.901 237.59 81.242 235.293C81.694 232.256 82.086 228.517 82.522 223.088C82.844 219.078 83.208 216.826 85.075 207.266C89.743 183.373 95.414 171.065 104.274 165.596C106.631 164.142 108.036 163.861 110.297 164.394ZM291.304 166.576C293.539 167.426 298.984 172.3 300.092 174.442C300.266 174.78 300.788 175.645 301.251 176.366C301.713 177.087 302.715 178.837 303.476 180.256C304.237 181.674 305.546 183.825 306.385 185.035C310.228 190.579 310.523 191.331 313.198 202.383C315.18 210.572 316.145 215.608 317.278 223.672C317.662 226.411 318.192 230.059 318.456 231.778C320.223 243.317 320.523 251.082 319.451 257.559C319.185 259.17 318.827 261.587 318.657 262.93C318.224 266.333 318.091 267.017 316.669 273.086C314.962 280.373 314.877 280.656 312.695 286.352C308.686 296.817 307.677 299.225 306.531 301.064C305.487 302.74 301.638 309.378 299.005 314.047C297.946 315.924 296.445 318.057 294.659 320.223C294.23 320.743 293.081 321.81 292.106 322.594C291.13 323.378 289.673 324.695 288.867 325.521C287.314 327.112 286.898 327.382 284.562 328.314C280.038 330.118 276.671 330.333 272.593 329.079C268.495 327.819 264.532 323.526 260.843 316.348C259.795 314.307 258.638 312.099 258.274 311.442C255.879 307.118 253.013 294.758 252.438 286.27C252.285 284.014 252.004 280.498 251.813 278.457C250.725 266.853 251.83 248.539 254.511 233.731C256.312 223.779 261.96 205.98 265.76 198.282C266.9 195.972 268.681 192.281 269.718 190.078C271.606 186.07 273.107 183.481 275.666 179.825C276.418 178.75 277.724 176.773 278.569 175.43C280.866 171.782 285.338 167.35 287.556 166.526C289.132 165.941 289.65 165.948 291.304 166.576Z" fill="black"/>
</svg>
